<svg xmlns="http://www.w3.org/2000/svg" width="30" height="26.953" viewBox="0 0 30 26.953">
  <g id="chat" transform="translate(0 0)">
    <path id="Path_53" data-name="Path 53" d="M192.874,23.511A7.594,7.594,0,0,0,195.1,18.2c0-4.53-4.549-8.2-9.727-8.2S176,13.673,176,18.2l9.375,8.2a12.431,12.431,0,0,0,4.231-.733,5.843,5.843,0,0,0,4.324,1.9,4.143,4.143,0,0,1-1.055-4.067Zm0,0" transform="translate(-165.687 -9.415)" fill="#fff"/>
    <path id="Path_54" data-name="Path 54" d="M24.557,151.172A8.055,8.055,0,0,1,29.1,158.2c0,4.53-4.2,8.2-9.375,8.2a12.432,12.432,0,0,1-4.231-.733,5.843,5.843,0,0,1-4.324,1.9,4.143,4.143,0,0,0,1.055-4.067A7.594,7.594,0,0,1,10,158.2c0-4.53,4.549-8.2,9.727-8.2a10.349,10.349,0,0,1,4.831,1.172Zm0,0" transform="translate(-9.414 -141.211)" fill="#fff"/>
    <path id="Path_55" data-name="Path 55" d="M246.586,100a.586.586,0,1,0,.586.586A.586.586,0,0,0,246.586,100Zm0,0" transform="translate(-231.586 -94.141)" fill="#ec842f"/>
    <path id="Path_56" data-name="Path 56" d="M80.586,261.172a.586.586,0,1,0-.586-.586A.586.586,0,0,0,80.586,261.172Zm0,0" transform="translate(-75.313 -244.766)" fill="#ec842f"/>
    <path id="Path_57" data-name="Path 57" d="M19.687,0c-5.275,0-9.6,3.637-9.939,8.218C4.724,8.47,0,12.092,0,16.992a8.188,8.188,0,0,0,2.285,5.6,3.563,3.563,0,0,1-.942,3.357.586.586,0,0,0,.414,1,6.463,6.463,0,0,0,4.478-1.81,13.353,13.353,0,0,0,4.077.638c5.274,0,9.6-3.636,9.939-8.216a13.176,13.176,0,0,0,3.512-.625,6.463,6.463,0,0,0,4.478,1.81.586.586,0,0,0,.414-1,3.563,3.563,0,0,1-.942-3.357A8.188,8.188,0,0,0,30,8.789C30,3.7,24.912,0,19.688,0ZM10.312,24.609A11.845,11.845,0,0,1,6.3,23.918a.586.586,0,0,0-.649.149,5.287,5.287,0,0,1-2.63,1.561,4.739,4.739,0,0,0,.357-3.487.585.585,0,0,0-.143-.248,7.041,7.041,0,0,1-2.062-4.9c0-4.129,4.186-7.617,9.141-7.617,4.679,0,8.789,3.254,8.789,7.617,0,4.2-3.943,7.617-8.789,7.617Zm16.454-10.92a.587.587,0,0,0-.143.248,4.739,4.739,0,0,0,.357,3.487,5.285,5.285,0,0,1-2.63-1.561.586.586,0,0,0-.649-.149,11.543,11.543,0,0,1-3.452.677,8.387,8.387,0,0,0-3.166-5.845h7.643a.586.586,0,0,0,0-1.172H15.284A10.928,10.928,0,0,0,10.923,8.22c.337-3.935,4.139-7.048,8.765-7.048,4.955,0,9.141,3.488,9.141,7.617a7.041,7.041,0,0,1-2.062,4.9Zm0,0" fill="#ec842f"/>
    <path id="Path_58" data-name="Path 58" d="M127.969,260h-7.383a.586.586,0,0,0,0,1.172h7.383a.586.586,0,0,0,0-1.172Zm0,0" transform="translate(-112.969 -244.766)" fill="#ec842f"/>
    <path id="Path_59" data-name="Path 59" d="M90.313,320H80.586a.586.586,0,0,0,0,1.172h9.727a.586.586,0,0,0,0-1.172Zm0,0" transform="translate(-75.313 -301.25)" fill="#ec842f"/>
    <path id="Path_60" data-name="Path 60" d="M293.969,100h-7.383a.586.586,0,0,0,0,1.172h7.383a.586.586,0,0,0,0-1.172Zm0,0" transform="translate(-269.242 -94.141)" fill="#ec842f"/>
  </g>
</svg>
