<svg xmlns="http://www.w3.org/2000/svg" width="40" height="40" viewBox="0 0 40 40">
  <g id="close" transform="translate(-699.334 -672.334)">
    <path id="Icon_ionic-ios-close-circle" data-name="Icon ionic-ios-close-circle" d="M23.375,3.375a20,20,0,1,0,20,20A20,20,0,0,0,23.375,3.375Zm5.067,27.24-5.067-5.067-5.067,5.067a1.537,1.537,0,1,1-2.173-2.173L21.2,23.375l-5.067-5.067a1.537,1.537,0,0,1,2.173-2.173L23.375,21.2l5.067-5.067a1.537,1.537,0,0,1,2.173,2.173l-5.067,5.067,5.067,5.067a1.544,1.544,0,0,1,0,2.173A1.526,1.526,0,0,1,28.442,30.615Z" transform="translate(695.959 668.959)" fill="#d62e2e"/>
  </g>
</svg>
