<svg xmlns="http://www.w3.org/2000/svg" width="30" height="29.981" viewBox="0 0 30 29.981">
  <g id="Group_73" data-name="Group 73" transform="translate(-845 -343.927)">
    <path id="Path_61" data-name="Path 61" d="M896.654,347.754c-.432-.1-.416.244-.848.141v-3.11c-1.8.183-3.192,1.509-4.523,1.7a.622.622,0,0,0-.283-.565c1.36-.842,4.23-3.02,5.8-1.414C896.715,345.554,896.965,346.934,896.654,347.754Z" transform="translate(-39.498 0)" fill="#fff" fill-rule="evenodd"/>
    <path id="Path_62" data-name="Path 62" d="M976.583,346.239a.39.39,0,0,0-.283.424c-1.273-.2-2.685-1.453-4.382-1.7-.328.756-.048,2.119-.141,3.11-.432.1-.416-.244-.848-.141a6.926,6.926,0,0,1,.141-3.675C973.045,343.719,975.377,345.087,976.583,346.239Z" transform="translate(-107.976 -0.181)" fill="#fff" fill-rule="evenodd"/>
    <path id="Path_63" data-name="Path 63" d="M858.973,356.624c3.6-.687,3.39,4.559.565,4.665C856.921,361.386,856.083,357.175,858.973,356.624Z" transform="translate(-10.439 -10.849)" fill="#fff" fill-rule="evenodd"/>
    <path id="Path_64" data-name="Path 64" d="M1015.4,356.706c3.458-.6,3.475,4.643.424,4.665C1013.1,361.39,1012.514,357.21,1015.4,356.706Z" transform="translate(-144.674 -10.93)" fill="#fff" fill-rule="evenodd"/>
    <path id="Path_65" data-name="Path 65" d="M941.089,374.9c.538-.067.882.06.99.424-.035.583-.736.583-1.131.424A1.2,1.2,0,0,1,941.089,374.9Z" transform="translate(-82.377 -26.576)" fill="#fff" fill-rule="evenodd"/>
    <path id="Path_66" data-name="Path 66" d="M956.089,374.9c.538-.067.882.06.99.424.02.637-.682.637-1.131.424A1.2,1.2,0,0,1,956.089,374.9Z" transform="translate(-95.257 -26.576)" fill="#fff" fill-rule="evenodd"/>
    <path id="Path_67" data-name="Path 67" d="M927.2,377.979c.11.675-.3.836-.848.848C925.615,378.351,926.532,377.434,927.2,377.979Z" transform="translate(-69.617 -29.094)" fill="#fff" fill-rule="evenodd"/>
    <path id="Path_68" data-name="Path 68" d="M971.128,378.985c-.332.291-1.086.146-1.131-.283C969.969,377.851,971.387,378.042,971.128,378.985Z" transform="translate(-107.328 -29.393)" fill="#fff" fill-rule="evenodd"/>
    <path id="Path_69" data-name="Path 69" d="M913.2,383.979c.11.675-.3.836-.848.848C911.615,384.351,912.532,383.434,913.2,383.979Z" transform="translate(-57.596 -34.246)" fill="#fff" fill-rule="evenodd"/>
    <path id="Path_70" data-name="Path 70" d="M985.009,385.022c-.114.122-.387.084-.424.283-.378-.187-.828-.3-.707-.99A.73.73,0,0,1,985.009,385.022Z" transform="translate(-119.23 -34.582)" fill="#fff" fill-rule="evenodd"/>
    <path id="Path_71" data-name="Path 71" d="M848.322,391.424a13.991,13.991,0,0,0-1.7,3.958c.756.328,2.119.048,3.11.141.1.432-.244.416-.141.848-1.019.194-3.2.389-3.817-.283-.265-1.986.97-3.629,1.7-5.089C847.842,391.057,847.9,391.422,848.322,391.424Z" transform="translate(-0.636 -40.419)" fill="#fff" fill-rule="evenodd"/>
    <path id="Path_72" data-name="Path 72" d="M1032.841,396.089c-.618.672-2.8.477-3.817.283.1-.432-.244-.416-.141-.848h3.11c-.236-1.649-1.073-2.7-1.555-4.1A2.422,2.422,0,0,0,1031,391,7.437,7.437,0,0,1,1032.841,396.089Z" transform="translate(-157.874 -40.419)" fill="#fff" fill-rule="evenodd"/>
    <path id="Path_73" data-name="Path 73" d="M901.084,392.627a.764.764,0,0,1-.848.707c-.063-.126-.124-.253-.283-.283C899.846,392.282,900.884,391.895,901.084,392.627Z" transform="translate(-47.178 -41.48)" fill="#fff" fill-rule="evenodd"/>
    <path id="Path_74" data-name="Path 74" d="M996.093,392.975c.656-.043.977.248.99.848-.114.122-.387.084-.424.283C996.208,394.01,995.68,393.491,996.093,392.975Z" transform="translate(-129.607 -42.111)" fill="#fff" fill-rule="evenodd"/>
    <path id="Path_75" data-name="Path 75" d="M910.827,401.124v1.131c.3.55,1.23.466,1.7.848,1.19-1.891,3.8.768,1.7,1.7a4.315,4.315,0,0,1,.707,1.7,3.539,3.539,0,0,1,1.414.141,2.039,2.039,0,0,1,0,2.12c-.626-.067-.7.195-1.131,0-.55.3-.466,1.23-.848,1.7,1.876,1.2-.742,3.771-1.7,1.7a4.313,4.313,0,0,1-1.7.707v1.272a1.938,1.938,0,0,1-2.262.141v-1.131c-.3-.55-1.23-.466-1.7-.848-1.2,1.876-3.771-.742-1.7-1.7a4.315,4.315,0,0,1-.707-1.7,3.539,3.539,0,0,1-1.414-.141,2.039,2.039,0,0,1,0-2.12h1.131c.55-.3.466-1.23.848-1.7,0-.61-.7-.521-.707-1.131a1.254,1.254,0,0,1,2.4-.565,4.314,4.314,0,0,1,1.7-.707C908.047,400.833,909.857,400.463,910.827,401.124Zm0,8.764a2.361,2.361,0,0,0-1.7-4.382C906.07,406.289,907.753,411.093,910.827,409.888Z" transform="translate(-49.712 -48.847)" fill="#fff" fill-rule="evenodd"/>
    <path id="Path_76" data-name="Path 76" d="M891.084,403.627a.764.764,0,0,1-.848.707c-.063-.126-.124-.253-.283-.283C889.846,403.282,890.884,402.895,891.084,403.627Z" transform="translate(-38.592 -50.926)" fill="#fff" fill-rule="evenodd"/>
    <path id="Path_77" data-name="Path 77" d="M1006.142,403.831c.665-.147.711.326.99.565-.074.209-.209.356-.283.565-.4.117-.366-.2-.707-.141C1006.073,404.5,1005.861,404.1,1006.142,403.831Z" transform="translate(-138.242 -51.412)" fill="#fff" fill-rule="evenodd"/>
    <path id="Path_78" data-name="Path 78" d="M883.832,416.007c.016.629-.121,1.1-.848.99C882.483,416.418,883.205,415.458,883.832,416.007Z" transform="translate(-32.471 -61.75)" fill="#fff" fill-rule="evenodd"/>
    <path id="Path_79" data-name="Path 79" d="M1014.084,417h.565c.081.3.35.4.283.848-.186.05-.222.249-.424.283C1013.926,418.2,1013.789,417.366,1014.084,417Z" transform="translate(-145.053 -62.743)" fill="#fff" fill-rule="evenodd"/>
    <path id="Path_80" data-name="Path 80" d="M878.94,430.062c.084.7-.137,1.089-.848.99C877.647,430.418,878.276,429.551,878.94,430.062Z" transform="translate(-28.286 -73.826)" fill="#fff" fill-rule="evenodd"/>
    <path id="Path_81" data-name="Path 81" d="M1019.052,432.937c-2.165-.3.757-2.09,0,0Z" transform="translate(-148.75 -75.571)" fill="#fff" fill-rule="evenodd"/>
    <ellipse id="Ellipse_3" data-name="Ellipse 3" cx="0.623" cy="0.635" rx="0.623" ry="0.635" transform="translate(849.325 358.145)" fill="#fff"/>
    <path id="Path_82" data-name="Path 82" d="M1020.012,446h.565c.219.206.125.724.141,1.131C1020.082,447.58,1019.577,446.588,1020.012,446Z" transform="translate(-150.133 -87.644)" fill="#fff" fill-rule="evenodd"/>
    <path id="Path_83" data-name="Path 83" d="M878.768,459.947c.2.425.206,1.026-.283,1.131-.514,0-.621-.416-.565-.99A1.2,1.2,0,0,1,878.768,459.947Z" transform="translate(-28.255 -99.612)" fill="#fff" fill-rule="evenodd"/>
    <path id="Path_84" data-name="Path 84" d="M1018.769,461.538c.044.562-.271.765-.848.707C1017.3,461.525,1018.5,460.582,1018.769,461.538Z" transform="translate(-148.325 -100.638)" fill="#fff" fill-rule="evenodd"/>
    <path id="Path_85" data-name="Path 85" d="M848.958,468.88c-.1.432.244.416.141.848h-3.11a10.123,10.123,0,0,0,1.7,3.958c-.159.265-.548.3-.707.565A9.317,9.317,0,0,1,845,469.445C845.4,468.415,847.8,468.683,848.958,468.88Z" transform="translate(0 -107.131)" fill="#fff" fill-rule="evenodd"/>
    <path id="Path_86" data-name="Path 86" d="M1032.922,468.842a6.712,6.712,0,0,1-1.838,4.947c-1.237-.923,1.107-2.61.989-4.241-.756-.328-2.119-.048-3.11-.141C1028.8,467.744,1032.242,468.366,1032.922,468.842Z" transform="translate(-157.954 -106.811)" fill="#fff" fill-rule="evenodd"/>
    <path id="Path_87" data-name="Path 87" d="M883.052,475.937c-2.165-.3.757-2.09,0,0Z" transform="translate(-31.974 -112.493)" fill="#fff" fill-rule="evenodd"/>
    <path id="Path_88" data-name="Path 88" d="M1013.912,475.366a1.054,1.054,0,0,1-.424,1.131c-.209-.073-.356-.209-.565-.283C1012.821,475.439,1013.338,475.064,1013.912,475.366Z" transform="translate(-144.175 -112.77)" fill="#fff" fill-rule="evenodd"/>
    <path id="Path_89" data-name="Path 89" d="M890.582,488.409c-.164-.023-.251.031-.283.141C888.38,488.329,890.643,486.367,890.582,488.409Z" transform="translate(-38.231 -123.268)" fill="#fff" fill-rule="evenodd"/>
    <path id="Path_90" data-name="Path 90" d="M1006.317,488.458c-.028.584-.266.959-.99.848C1004.9,488.648,1005.8,487.763,1006.317,488.458Z" transform="translate(-137.569 -123.883)" fill="#fff" fill-rule="evenodd"/>
    <path id="Path_91" data-name="Path 91" d="M900.1,499.457a.728.728,0,0,1-1.131-.707C899.419,498.314,900.208,498.581,900.1,499.457Z" transform="translate(-46.339 -132.761)" fill="#fff" fill-rule="evenodd"/>
    <path id="Path_92" data-name="Path 92" d="M996.057,499.9a.722.722,0,0,1-1.131.565C994.794,499.547,995.764,499.258,996.057,499.9Z" transform="translate(-128.722 -133.628)" fill="#fff" fill-rule="evenodd"/>
    <path id="Path_93" data-name="Path 93" d="M912.087,508.457c-.505.233-1.217.054-1.131-.707C911.4,507.314,912.193,507.581,912.087,508.457Z" transform="translate(-56.627 -140.489)" fill="#fff" fill-rule="evenodd"/>
    <path id="Path_94" data-name="Path 94" d="M983.843,508.574a.753.753,0,0,1-1.131.565C982.41,508.159,983.654,507.847,983.843,508.574Z" transform="translate(-118.205 -141.03)" fill="#fff" fill-rule="evenodd"/>
    <path id="Path_95" data-name="Path 95" d="M859.1,509.822c3.269-.451,3.4,4.454.565,4.665C857.013,514.684,855.888,510.265,859.1,509.822Z" transform="translate(-10.423 -142.419)" fill="#fff" fill-rule="evenodd"/>
    <path id="Path_96" data-name="Path 96" d="M1015.773,509.832c3.621-.458,3.073,4.918,0,4.665C1013.417,514.3,1012.781,510.21,1015.773,509.832Z" transform="translate(-144.905 -142.429)" fill="#fff" fill-rule="evenodd"/>
    <path id="Path_97" data-name="Path 97" d="M926.131,514.36c.1.386-.281.285-.283.565-.445.068-.552-.2-.848-.283v-.565C925.333,513.786,926.086,513.931,926.131,514.36Z" transform="translate(-68.691 -145.968)" fill="#fff" fill-rule="evenodd"/>
    <path id="Path_98" data-name="Path 98" d="M969.949,514.573c.074.582-.765.719-1.131.424C968.582,514.1,969.809,513.9,969.949,514.573Z" transform="translate(-106.29 -146.18)" fill="#fff" fill-rule="evenodd"/>
    <path id="Path_99" data-name="Path 99" d="M940.128,517.227v.707c-.333.291-1.086.146-1.131-.283C938.978,517.015,939.68,517.015,940.128,517.227Z" transform="translate(-80.71 -148.694)" fill="#fff" fill-rule="evenodd"/>
    <path id="Path_100" data-name="Path 100" d="M954.972,517.421v.707c-.182.195-.614.14-.99.141.058-.341-.258-.307-.141-.707C954.236,517.383,954.54,517.214,954.972,517.421Z" transform="translate(-93.433 -148.887)" fill="#fff" fill-rule="evenodd"/>
    <path id="Path_101" data-name="Path 101" d="M896.647,527a2.321,2.321,0,0,1,.99.283c-.107,1.259.307,3.04-.424,3.675-.164-.023-.251.031-.283.141a7.283,7.283,0,0,1-3.11-.99c-.783-.359-2.317-.627-1.7-1.7,1.275.2,2.643,1.5,4.382,1.7C896.833,529.349,896.554,527.986,896.647,527Z" transform="translate(-40.338 -157.19)" fill="#fff" fill-rule="evenodd"/>
    <path id="Path_102" data-name="Path 102" d="M971.754,526.883v3.11c1.8-.188,3.228-1.473,4.523-1.7.561.961-.885,1.472-1.7,1.838a10.152,10.152,0,0,1-3.11.848c0-.138-.173-.11-.283-.141-.633-.656-.5-2.775-.283-3.817C971.339,527.127,971.322,526.781,971.754,526.883Z" transform="translate(-107.954 -157.077)" fill="#fff" fill-rule="evenodd"/>
  </g>
</svg>
