<svg xmlns="http://www.w3.org/2000/svg" width="14.891" height="20" viewBox="0 0 14.891 20">
  <g id="explain" transform="translate(-51.988 -0.001)">
    <g id="Group_3" data-name="Group 3" transform="translate(51.988 0.001)">
      <g id="Group_2" data-name="Group 2" transform="translate(0 0)">
        <path id="Path_19" data-name="Path 19" d="M141.4,1.321h-1.274a.358.358,0,0,1-.335-.268A1.3,1.3,0,0,0,138.469,0a1.319,1.319,0,0,0-1.319,1.073.335.335,0,0,1-.335.246h-1.23V3.556H141.4Z" transform="translate(-131.046 -0.001)" fill="#fff"/>
        <path id="Path_20" data-name="Path 20" d="M66.878,78.265V63.213a1.065,1.065,0,0,0-1.05-1.08q-.04,0-.08,0H63.541v1.34c0,.21-.128.5-.334.5H55.634c-.205,0-.308-.289-.308-.5v-1.34H53.118a1.061,1.061,0,0,0-1.127,1q0,.041,0,.082V78.265a1.17,1.17,0,0,0,1.129,1.208H65.749a1.17,1.17,0,0,0,1.13-1.208ZM57.354,74.8l-2,1.918a.356.356,0,0,1-.257.131.407.407,0,0,1-.282-.131l-1.053-1.1a.4.4,0,0,1,.026-.552.379.379,0,0,1,.539,0l.77.841L56.84,74.22a.38.38,0,0,1,.536.1A.4.4,0,0,1,57.354,74.8Zm0-4.2h0l-2,1.918a.356.356,0,0,1-.257.131.407.407,0,0,1-.282-.131l-1.053-1.1a.4.4,0,0,1,.026-.552.379.379,0,0,1,.539,0l.77.841,1.746-1.681a.38.38,0,0,1,.536.1A.4.4,0,0,1,57.354,70.595Zm0-4.2-2,1.918a.356.356,0,0,1-.257.131.407.407,0,0,1-.282-.131l-1.053-1.1a.4.4,0,0,1,.026-.552.379.379,0,0,1,.539,0l.77.841,1.746-1.681a.38.38,0,0,1,.536.1A.4.4,0,0,1,57.354,66.391Zm7.471,9.93h-5.9a.394.394,0,0,1,0-.788h5.9a.394.394,0,0,1,0,.788Zm0-4.2h-5.9a.394.394,0,0,1,0-.788h5.9a.394.394,0,0,1,0,.788Zm0-4.2h-5.9a.394.394,0,0,1,0-.788h5.9a.394.394,0,0,1,0,.788Z" transform="translate(-51.988 -59.474)" fill="#fff"/>
      </g>
    </g>
  </g>
</svg>
