<svg xmlns="http://www.w3.org/2000/svg" width="25" height="22.917" viewBox="0 0 25 22.917">
  <g id="feedback" transform="translate(0 -21.33)">
    <g id="Group_15" data-name="Group 15" transform="translate(0 21.33)">
      <g id="Group_14" data-name="Group 14" transform="translate(0 0)">
        <path id="Path_22" data-name="Path 22" d="M22.513,30.566a.517.517,0,0,0-.566.113l-3.2,3.215a1.548,1.548,0,0,1-.795.427l-2.595.521a1.546,1.546,0,0,1-1.406-.427A1.564,1.564,0,0,1,13.523,33l.458-2.3H5.708a.521.521,0,0,1,0-1.042H14.42c.018-.02.029-.045.048-.065l2.012-2.019H5.708a.521.521,0,0,1,0-1.042H17.125a.5.5,0,0,1,.291.1l3.368-3.379a3,3,0,0,1,1.022-.667.522.522,0,0,0,.093-.919,2.067,2.067,0,0,0-1.141-.344H2.076A2.082,2.082,0,0,0,0,23.414V43.726a.521.521,0,0,0,.32.481.511.511,0,0,0,.2.04.518.518,0,0,0,.367-.153l5.037-5.056H20.758a2.082,2.082,0,0,0,2.076-2.083V31.047A.521.521,0,0,0,22.513,30.566ZM11.936,33.83H5.708a.521.521,0,0,1,0-1.042h6.227a.521.521,0,0,1,0,1.042Z" transform="translate(0 -21.33)" fill="#fff"/>
        <path id="Path_23" data-name="Path 23" d="M307.423,64a2.086,2.086,0,0,0-1.466.607L299.364,71.2a.539.539,0,0,0-.148.277l-.542,2.709a.542.542,0,0,0,.531.648.553.553,0,0,0,.106-.011l2.707-.542a.538.538,0,0,0,.277-.148l6.594-6.593h0A2.073,2.073,0,0,0,307.423,64Zm-.859,4.333-1.4-1.4.766-.766,1.4,1.4Z" transform="translate(-284.497 -61.833)" fill="#fff"/>
      </g>
    </g>
  </g>
</svg>
