<svg xmlns="http://www.w3.org/2000/svg" width="247" height="47.672" viewBox="0 0 247 47.672">
  <g id="logo" transform="translate(-22 -3.371)">
    <text id="Online_Educational_Assessment" data-name="Online Educational Assessment" transform="translate(90 44.612)" fill="#fff" font-size="10" font-family="SegoeUI, Segoe UI" letter-spacing="0.141em"><tspan x="0" y="0">Online Educational Assessment</tspan></text>
    <text id="Access_Home" data-name="Access @ Home" transform="translate(90 30.371)" fill="#fff" font-size="25" font-family="SegoeUI, Segoe UI"><tspan x="0" y="0">Access @ Home</tspan></text>
    <g id="Group_36" data-name="Group 36" transform="translate(22 6.362)">
      <g id="Group_35" data-name="Group 35" transform="translate(0 0)">
        <path id="Path_41" data-name="Path 41" d="M845.157,559h3.387a2.674,2.674,0,0,0,1.3.261h.391c.133.3.6.269,1.042.26a4.373,4.373,0,0,0,2.084.521,4.056,4.056,0,0,0,1.693.782h.13c.747.469,1.559.872,2.345,1.3.684.271,1.048.862,1.824,1.042a27.224,27.224,0,0,0,2.866,2.475v12.506a3.456,3.456,0,0,0-.521,1.3v.13c-.393.215-.523.693-.782,1.042-.058.116-.114.233-.26.26-.485.166-.668.635-1.042.912.041.345-.73-.122-.521.391-.231.03-.652-.131-.521.261-.552-.031-.662.38-1.042.521a7.184,7.184,0,0,0-1.693,1.042c-.261-.044-.408.027-.391.261h-.13a1.873,1.873,0,0,0-1.172.782,2.222,2.222,0,0,0-1.433.782c-.41-.149-.316.2-.521.26-.559.353-1.362.462-1.693,1.042-.611-.046-.756.373-1.172.521-.416.112-.4-.205-.651-.261v-.261c.415-.41.369-1.281.521-1.954v-.13a3.2,3.2,0,0,0,.521-1.563c.064-.63.55-.839.521-1.563.229-.031.3-.224.26-.521a3,3,0,0,0,.781-1.563v-.13a11.608,11.608,0,0,0,1.563-2.736,2.433,2.433,0,0,0,1.042-1.563c.475,0,.431-.525.651-.781a3.352,3.352,0,0,0,.912-1.172v-.13c.579-.159.652-.825,1.042-1.172-.024-.111.051-.123.13-.13,1.028-1.056,1.975-2.193,3-3.257v-.13c.222.048.246-.1.261-.26.289.072.185-.249.391-.261.441-.406,1.807-1.2,1.172-1.824-.468.01-1.061-.106-1.172.26a2.3,2.3,0,0,0-1.563.782c-.415-.111-.495.113-.651.26a2.216,2.216,0,0,0-1.172.782c-.413.238-1,.307-1.172.782-.355-.095-.262.259-.521.26-.426.355-1.1.467-1.3,1.042h-.13a12.373,12.373,0,0,0-2.475,1.954c.024.111-.051.123-.13.13a2.244,2.244,0,0,0-1.172,1.042h-.13a30,30,0,0,0-2.736,2.475c.024.111-.051.123-.13.13-.338-.226-.462-.667-.912-.782-.068-.453-.441-.6-.782-.781a2.925,2.925,0,0,0-1.433-1.3,2.755,2.755,0,0,0-1.172-.781,4.981,4.981,0,0,0-1.693-1.042,2.259,2.259,0,0,0-1.172-.521c-.1-.426-.728-.314-1.042-.521h-.261a1.877,1.877,0,0,0-1.3-.521,3.778,3.778,0,0,0-1.824-.521c-.133-.3-.6-.27-1.042-.26h-.391c-.823-.968-1.821.818-.391.782.412.109.41.632,1.042.521.03.4.462.406.782.521-.012.49.653.3.782.651.412.283.622.768,1.172.912q1.093,1.122,2.214,2.214c.229.639.773.964,1.172,1.433.221.257.176.779.651.782v.13c1.052,1.467,1.864,3.173,2.866,4.69.7,1.782,1.675,3.816,2.345,5.992v.13h-.782c-.512-.139-.959-.344-1.433-.521-.157-.147-.236-.372-.651-.261-.285-.627-1.153-.67-1.693-1.042h-.13c.061-.278-.186-.248-.391-.26a3.878,3.878,0,0,0-1.693-1.042c-.38-.141-.49-.552-1.042-.521.017-.234-.129-.3-.391-.261a7.189,7.189,0,0,0-1.693-1.042c-.38-.141-.49-.552-1.042-.521-.063-.371-.495-.374-.782-.521-.422.161-.1-.421-.521-.26a1.342,1.342,0,0,0-.782-.782c-.146-.027-.2-.144-.261-.26-.259-.349-.388-.828-.781-1.042.1-.451-.145-.55-.26-.782-.079-.268.21-.905-.261-.782V565.644a27.069,27.069,0,0,0,2.866-2.475,4.147,4.147,0,0,0,1.563-1.042,49.234,49.234,0,0,1,5.862-2.605,2.942,2.942,0,0,0,1.563-.26C844.306,559.191,845.09,559.454,845.157,559Zm2.345,4.69c.309-.351-1.06-.461-1.3-.261a7.247,7.247,0,0,0-1.954,1.3,1.3,1.3,0,0,0-.912.521h-.13c-.387.311-1.451.629-1.3,1.042.345.124.828.54,1.172.26.083.264.609.086.651.391v1.172c-.508.287-.289,1.941,0,1.954v.521c.131,0,.155.105.26.13v.13c.355.644.7,1.3,1.563,1.433.248.056.236.372.651.261h1.172c.468-.01,1.061.105,1.172-.261a2.526,2.526,0,0,0,1.693-1.693v-.13c.47-.181.275-1.576.26-1.824h.521a3.878,3.878,0,0,0-.261-2.605v-.13c.359-.076.544-.324.912-.391-.025-.366-.226-.555-.651-.521h-.13a2.619,2.619,0,0,0-1.433-.521.637.637,0,0,0-.651-.261,1.476,1.476,0,0,0-1.172-.521Z" transform="translate(-821.709 -543.238)" fill="#fff" fill-rule="evenodd"/>
        <path id="Path_42" data-name="Path 42" d="M763.291,454.023c-3.229-1.287-6.82-2.212-10.291-3.257,8.307-4.459,17.005-8.528,25.532-12.766,8.333,4.3,16.9,8.369,25.272,12.636a43.2,43.2,0,0,1-4.95,1.563c-.518,1.827-.263,5.121-.13,7.165,1.264.207.929,1.872.391,2.605a34.8,34.8,0,0,1-.13,4.82h-1.433c-.219-1.735.464-4.372-.391-5.471a1.452,1.452,0,0,1,.782-2.084V452.59c-1.541.283-2.735.912-4.3,1.172-.18.168-.129.566-.13.912a27.6,27.6,0,0,0-.13,4.3c-3.728-2.916-7.7-5.59-13.938-5.992a4.793,4.793,0,0,0-2.475,0c-6.173.34-9.863,3.164-13.548,5.992A36.711,36.711,0,0,0,763.291,454.023Z" transform="translate(-753 -438)" fill="#ec842f" fill-rule="evenodd"/>
      </g>
    </g>
  </g>
</svg>
