<svg id="profile" xmlns="http://www.w3.org/2000/svg" width="54.988" height="54.988" viewBox="0 0 54.988 54.988">
  <circle id="Ellipse_2" data-name="Ellipse 2" cx="27.494" cy="27.494" r="27.494" transform="translate(0 0)" fill="#ec842f"/>
  <path id="Path_47" data-name="Path 47" d="M159.5,148.4a27.5,27.5,0,0,1-29.6,19.537l-11.561-11.561,19,.067-.243-14.312-.5-1.9,1.254-13.475Z" transform="translate(-105.627 -113.14)" fill="#fff" opacity="0.2"/>
  <path id="Path_48" data-name="Path 48" d="M125.564,128.341h.529l3.1-1.689.5-1.97a8.791,8.791,0,0,1-3.342-6.577v-2.2a6.657,6.657,0,0,1,6.769-6.5h0a6.659,6.659,0,0,1,6.77,6.5v2.2a8.788,8.788,0,0,1-3.343,6.576l.5,1.971h.043l3.01,1.689h.572a7.114,7.114,0,0,1,7.23,6.938V140.9H118.336v-5.619A7.107,7.107,0,0,1,125.564,128.341Z" transform="translate(-105.627 -97.662)" fill="#f9f9f9"/>
  <path id="Path_49" data-name="Path 49" d="M230.711,109.962a6.953,6.953,0,0,1,2.717-.55h0a6.659,6.659,0,0,1,6.77,6.5v2.2a8.788,8.788,0,0,1-3.343,6.576l.5,1.971h.043l3.01,1.689h.572a7.114,7.114,0,0,1,7.23,6.938V140.9h-1.352v-5.2a7.114,7.114,0,0,0-7.23-6.938h-.572l-3.01-1.689h-.043l-.5-1.971a8.787,8.787,0,0,0,3.342-6.576v-2.2a6.658,6.658,0,0,0-6.769-6.5h0A6.977,6.977,0,0,0,230.711,109.962Z" transform="translate(-205.934 -97.662)" fill="#eaeaed"/>
</svg>
