<svg id="teacher" xmlns="http://www.w3.org/2000/svg" width="30" height="30" viewBox="0 0 30 30">
  <g id="Group_68" data-name="Group 68" transform="translate(5.273)">
    <g id="Group_67" data-name="Group 67">
      <path id="Path_50" data-name="Path 50" d="M92.637,0a2.637,2.637,0,1,0,2.637,2.637A2.64,2.64,0,0,0,92.637,0Z" transform="translate(-90)" fill="#fff"/>
    </g>
  </g>
  <g id="Group_70" data-name="Group 70" transform="translate(12.305)">
    <g id="Group_69" data-name="Group 69">
      <path id="Path_51" data-name="Path 51" d="M225.059,0H212.637A2.64,2.64,0,0,0,210,2.637V5.76a3.513,3.513,0,0,1,.728.544l1.723,1.723L213.7,7.4a3.3,3.3,0,0,1,2.328-.269l4.218-2.109a2.637,2.637,0,0,1,2.359,4.717l-4.042,2.021a3.483,3.483,0,0,1-1.719,1.93l-.74.37h8.954a2.64,2.64,0,0,0,2.637-2.637V2.637A2.64,2.64,0,0,0,225.059,0Z" transform="translate(-210)" fill="#fff"/>
    </g>
  </g>
  <g id="Group_72" data-name="Group 72" transform="translate(0 6.504)">
    <g id="Group_71" data-name="Group 71">
      <path id="Path_52" data-name="Path 52" d="M24.517,111.493a.88.88,0,0,0-1.179-.393l-4.9,2.451a1.719,1.719,0,0,0-1.644-.073l-2.383,1.191-2.62-2.62a1.746,1.746,0,0,0-1.243-.515H3.516A3.519,3.519,0,0,0,0,115.051v5.332a1.761,1.761,0,0,0,2.344,1.657l1.172-.414v11.12a1.758,1.758,0,0,0,3.516,0v-6.211a.879.879,0,0,1,1.758,0v6.211a1.758,1.758,0,0,0,3.516,0v-14.7l1.172.413a1.7,1.7,0,0,0,1.372-.076l3.516-1.758a1.739,1.739,0,0,0,.951-1.546l4.808-2.4A.879.879,0,0,0,24.517,111.493Z" transform="translate(0 -111.008)" fill="#fff"/>
    </g>
  </g>
</svg>
